<?xml version="1.0" encoding="UTF-8"?>
<svg width="700pt" height="700pt" version="1.1" viewBox="0 0 700 700" xmlns="http://www.w3.org/2000/svg" xmlns:xlink="http://www.w3.org/1999/xlink">
 <g>
  <path d="m611.48 280.6c0.14844-4.4805-1.4922-8.9609-4.8516-12.246l-55.926-55.625c-6.4219-6.4219-16.801-6.3477-23.223 0.074219s-6.3477 16.801 0.074219 23.223l27.703 27.625h-450.91c-9.1094 0-16.426 7.3164-16.426 16.426s7.3164 16.426 16.426 16.426h452.03l-28.598 28.598c-6.4219 6.4219-6.4219 16.801 0 23.223 3.2109 3.2109 7.3906 4.7773 11.648 4.7773 4.1797 0 8.4375-1.5664 11.648-4.7773l55.625-55.625c3.2852-3.3633 4.8555-7.7656 4.7812-12.098z"/>
  <use x="70" y="571.199219" xlink:href="#u"/>
  <use x="72.738281" y="571.199219" xlink:href="#d"/>
  <use x="74.582031" y="571.199219" xlink:href="#a"/>
  <use x="77.113281" y="571.199219" xlink:href="#j"/>
  <use x="79.632812" y="571.199219" xlink:href="#c"/>
  <use x="81.417969" y="571.199219" xlink:href="#a"/>
  <use x="83.949219" y="571.199219" xlink:href="#i"/>
  <use x="87.921875" y="571.199219" xlink:href="#h"/>
  <use x="90.59375" y="571.199219" xlink:href="#e"/>
  <use x="94.328125" y="571.199219" xlink:href="#g"/>
  <use x="95.714844" y="571.199219" xlink:href="#b"/>
  <use x="98.28125" y="571.199219" xlink:href="#a"/>
  <use x="100.8125" y="571.199219" xlink:href="#t"/>
  <use x="102.09375" y="571.199219" xlink:href="#a"/>
  <use x="104.625" y="571.199219" xlink:href="#a"/>
  <use x="107.15625" y="571.199219" xlink:href="#f"/>
  <use x="111.113281" y="571.199219" xlink:href="#s"/>
  <use x="114.828125" y="571.199219" xlink:href="#b"/>
  <use x="117.394531" y="571.199219" xlink:href="#e"/>
  <use x="70" y="574.933594" xlink:href="#r"/>
  <use x="71.625" y="574.933594" xlink:href="#d"/>
  <use x="73.464844" y="574.933594" xlink:href="#b"/>
  <use x="76.03125" y="574.933594" xlink:href="#q"/>
  <use x="81.21875" y="574.933594" xlink:href="#c"/>
  <use x="83.003906" y="574.933594" xlink:href="#p"/>
  <use x="85.664062" y="574.933594" xlink:href="#a"/>
  <use x="89.496094" y="574.933594" xlink:href="#o"/>
  <use x="92.617188" y="574.933594" xlink:href="#b"/>
  <use x="95.183594" y="574.933594" xlink:href="#n"/>
  <use x="97.839844" y="574.933594" xlink:href="#f"/>
  <use x="101.800781" y="574.933594" xlink:href="#m"/>
  <use x="104.535156" y="574.933594" xlink:href="#d"/>
  <use x="106.375" y="574.933594" xlink:href="#b"/>
  <use x="108.941406" y="574.933594" xlink:href="#l"/>
  <use x="110.222656" y="574.933594" xlink:href="#a"/>
  <use x="112.753906" y="574.933594" xlink:href="#k"/>
  <use x="114.964844" y="574.933594" xlink:href="#c"/>
 </g>
</svg>
